<mxfile host="app.diagrams.net" agent="Mozilla/5.0 (Windows NT 10.0; Win64; x64) AppleWebKit/537.36 (KHTML, like Gecko) Chrome/127.0.0.0 Safari/537.36" version="24.7.7">
  <diagram name="Page-1" id="c045TEzdk-SqHXNP3rUD">
    <mxGraphModel dx="397" dy="227" grid="1" gridSize="10" guides="1" tooltips="1" connect="1" arrows="1" fold="1" page="1" pageScale="1" pageWidth="1169" pageHeight="826" math="0" shadow="0">
      <root>
        <mxCell id="0" />
        <mxCell id="1" parent="0" />
        <mxCell id="kE1xLlnzsojC-IhX8l6a-12" value="" style="group" vertex="1" connectable="0" parent="1">
          <mxGeometry x="30" y="380" width="40" height="120" as="geometry" />
        </mxCell>
        <mxCell id="kE1xLlnzsojC-IhX8l6a-8" value="" style="shape=trapezoid;perimeter=trapezoidPerimeter;whiteSpace=wrap;html=1;fixedSize=1;rotation=90;size=20;" vertex="1" parent="kE1xLlnzsojC-IhX8l6a-12">
          <mxGeometry x="-35" y="38.18181818181818" width="110" height="43.63636363636363" as="geometry" />
        </mxCell>
        <mxCell id="kE1xLlnzsojC-IhX8l6a-9" value="&lt;font style=&quot;font-size: 15px;&quot;&gt;0&lt;/font&gt;" style="text;html=1;align=center;verticalAlign=middle;whiteSpace=wrap;rounded=0;" vertex="1" parent="kE1xLlnzsojC-IhX8l6a-12">
          <mxGeometry x="5" y="21.818181818181817" width="30" height="32.72727272727273" as="geometry" />
        </mxCell>
        <mxCell id="kE1xLlnzsojC-IhX8l6a-10" value="&lt;font style=&quot;font-size: 15px;&quot;&gt;1&lt;/font&gt;" style="text;html=1;align=center;verticalAlign=middle;whiteSpace=wrap;rounded=0;" vertex="1" parent="kE1xLlnzsojC-IhX8l6a-12">
          <mxGeometry x="5" y="65.45454545454545" width="30" height="32.72727272727273" as="geometry" />
        </mxCell>
        <mxCell id="kE1xLlnzsojC-IhX8l6a-18" value="" style="group" vertex="1" connectable="0" parent="1">
          <mxGeometry x="350" y="400" width="100" height="150" as="geometry" />
        </mxCell>
        <mxCell id="kE1xLlnzsojC-IhX8l6a-1" value="&lt;font style=&quot;font-size: 15px;&quot;&gt;&lt;b&gt;Instruction Memory&lt;/b&gt;&lt;/font&gt;" style="rounded=0;whiteSpace=wrap;html=1;" vertex="1" parent="kE1xLlnzsojC-IhX8l6a-18">
          <mxGeometry width="100" height="150" as="geometry" />
        </mxCell>
        <mxCell id="kE1xLlnzsojC-IhX8l6a-15" value="&lt;span style=&quot;font-size: 15px;&quot;&gt;A&lt;/span&gt;" style="text;html=1;align=center;verticalAlign=middle;whiteSpace=wrap;rounded=0;" vertex="1" parent="kE1xLlnzsojC-IhX8l6a-18">
          <mxGeometry y="23.002307692307685" width="20" height="34.61538461538461" as="geometry" />
        </mxCell>
        <mxCell id="kE1xLlnzsojC-IhX8l6a-17" value="&lt;span style=&quot;font-size: 15px;&quot;&gt;RD&lt;/span&gt;" style="text;html=1;align=center;verticalAlign=middle;whiteSpace=wrap;rounded=0;" vertex="1" parent="kE1xLlnzsojC-IhX8l6a-18">
          <mxGeometry x="70" y="23" width="30" height="34.62" as="geometry" />
        </mxCell>
        <mxCell id="kE1xLlnzsojC-IhX8l6a-19" value="" style="group" vertex="1" connectable="0" parent="1">
          <mxGeometry x="230" y="360" width="60" height="120" as="geometry" />
        </mxCell>
        <mxCell id="kE1xLlnzsojC-IhX8l6a-2" value="" style="rounded=0;whiteSpace=wrap;html=1;container=0;" vertex="1" parent="kE1xLlnzsojC-IhX8l6a-19">
          <mxGeometry x="10" y="41.75" width="40" height="78.25" as="geometry" />
        </mxCell>
        <mxCell id="kE1xLlnzsojC-IhX8l6a-3" value="" style="triangle;whiteSpace=wrap;html=1;rotation=90;container=0;" vertex="1" parent="kE1xLlnzsojC-IhX8l6a-19">
          <mxGeometry x="21.25" y="30" width="17.5" height="40" as="geometry" />
        </mxCell>
        <mxCell id="kE1xLlnzsojC-IhX8l6a-4" value="CLK" style="text;html=1;align=center;verticalAlign=middle;whiteSpace=wrap;rounded=0;container=0;" vertex="1" parent="kE1xLlnzsojC-IhX8l6a-19">
          <mxGeometry width="60" height="30" as="geometry" />
        </mxCell>
        <mxCell id="kE1xLlnzsojC-IhX8l6a-5" value="" style="endArrow=none;html=1;rounded=0;exitX=0;exitY=0.5;exitDx=0;exitDy=0;entryX=0.5;entryY=1;entryDx=0;entryDy=0;" edge="1" parent="kE1xLlnzsojC-IhX8l6a-19" source="kE1xLlnzsojC-IhX8l6a-3" target="kE1xLlnzsojC-IhX8l6a-4">
          <mxGeometry width="50" height="50" relative="1" as="geometry">
            <mxPoint x="300" y="88.75" as="sourcePoint" />
            <mxPoint x="350" y="38.75" as="targetPoint" />
          </mxGeometry>
        </mxCell>
        <mxCell id="kE1xLlnzsojC-IhX8l6a-20" value="" style="endArrow=none;html=1;rounded=0;exitX=1;exitY=0.5;exitDx=0;exitDy=0;entryX=0;entryY=0.5;entryDx=0;entryDy=0;" edge="1" parent="1" source="kE1xLlnzsojC-IhX8l6a-2" target="kE1xLlnzsojC-IhX8l6a-15">
          <mxGeometry width="50" height="50" relative="1" as="geometry">
            <mxPoint x="380" y="450" as="sourcePoint" />
            <mxPoint x="430" y="400" as="targetPoint" />
          </mxGeometry>
        </mxCell>
        <mxCell id="kE1xLlnzsojC-IhX8l6a-22" value="" style="endArrow=none;html=1;rounded=0;exitX=0.5;exitY=0;exitDx=0;exitDy=0;entryX=0;entryY=0.5;entryDx=0;entryDy=0;" edge="1" parent="1" source="kE1xLlnzsojC-IhX8l6a-8" target="kE1xLlnzsojC-IhX8l6a-2">
          <mxGeometry width="50" height="50" relative="1" as="geometry">
            <mxPoint x="380" y="450" as="sourcePoint" />
            <mxPoint x="430" y="400" as="targetPoint" />
          </mxGeometry>
        </mxCell>
        <mxCell id="kE1xLlnzsojC-IhX8l6a-23" value="" style="endArrow=none;html=1;rounded=0;" edge="1" parent="1">
          <mxGeometry width="50" height="50" relative="1" as="geometry">
            <mxPoint x="320" y="440" as="sourcePoint" />
            <mxPoint x="320" y="650" as="targetPoint" />
            <Array as="points">
              <mxPoint x="320" y="650" />
              <mxPoint x="380" y="650" />
            </Array>
          </mxGeometry>
        </mxCell>
        <mxCell id="kE1xLlnzsojC-IhX8l6a-28" value="" style="shape=stencil(tZXRjoIwEEW/pq+bQsPq6wb1PyqOS2NtSdvV3b93oGCs0I0IJISkc7mHIb1DCcttySsgKS0J25A0TSjFO66vT2tuKyicL164EXwvwSvWGX2Cqzi4liFUCUa4WmVbQr/wmfpieaGVQojQygbKg44wLhR66a+Hta//C1YV8s/gwLRNNtXd68yPbAFqskSnIbPre95OZ6KGvSaL7NQ81ORNJsuxEgsxy/e8OH0b/aMOfVdUO2oDA8JdFlL6AYt9YMXruesJnXzWF/h/moawnVsK9eC+/wxaP5sKWI0FPGWMTvOvx9qz0P+ZTfOzsf7Q/sL+FVLbaHKwHgkPHguDmWs8vcQ2VX+ONIUb);whiteSpace=wrap;html=1;" vertex="1" parent="1">
          <mxGeometry x="380" y="640" width="60" height="90" as="geometry" />
        </mxCell>
        <mxCell id="kE1xLlnzsojC-IhX8l6a-30" value="&lt;font style=&quot;font-size: 15px;&quot;&gt;+&lt;/font&gt;" style="text;html=1;align=center;verticalAlign=middle;whiteSpace=wrap;rounded=0;" vertex="1" parent="1">
          <mxGeometry x="410" y="670" width="20" height="30" as="geometry" />
        </mxCell>
        <mxCell id="kE1xLlnzsojC-IhX8l6a-31" value="&lt;font style=&quot;font-size: 15px;&quot;&gt;4&lt;/font&gt;" style="text;html=1;align=center;verticalAlign=middle;whiteSpace=wrap;rounded=0;" vertex="1" parent="1">
          <mxGeometry x="340" y="710" width="20" height="30" as="geometry" />
        </mxCell>
        <mxCell id="kE1xLlnzsojC-IhX8l6a-32" value="" style="endArrow=none;html=1;rounded=0;exitX=1;exitY=0.5;exitDx=0;exitDy=0;entryX=-0.022;entryY=0.919;entryDx=0;entryDy=0;entryPerimeter=0;" edge="1" parent="1" source="kE1xLlnzsojC-IhX8l6a-31" target="kE1xLlnzsojC-IhX8l6a-28">
          <mxGeometry width="50" height="50" relative="1" as="geometry">
            <mxPoint x="410" y="660" as="sourcePoint" />
            <mxPoint x="460" y="610" as="targetPoint" />
          </mxGeometry>
        </mxCell>
        <mxCell id="kE1xLlnzsojC-IhX8l6a-33" value="PC" style="text;html=1;align=center;verticalAlign=middle;whiteSpace=wrap;rounded=0;" vertex="1" parent="1">
          <mxGeometry x="280" y="413" width="60" height="30" as="geometry" />
        </mxCell>
        <mxCell id="kE1xLlnzsojC-IhX8l6a-34" value="PCNext" style="text;html=1;align=center;verticalAlign=middle;whiteSpace=wrap;rounded=0;" vertex="1" parent="1">
          <mxGeometry x="110" y="413" width="60" height="30" as="geometry" />
        </mxCell>
        <mxCell id="kE1xLlnzsojC-IhX8l6a-35" value="" style="endArrow=none;html=1;rounded=0;exitX=1;exitY=0.5;exitDx=0;exitDy=0;" edge="1" parent="1" source="kE1xLlnzsojC-IhX8l6a-17">
          <mxGeometry width="50" height="50" relative="1" as="geometry">
            <mxPoint x="590" y="460" as="sourcePoint" />
            <mxPoint x="620" y="440" as="targetPoint" />
          </mxGeometry>
        </mxCell>
        <mxCell id="kE1xLlnzsojC-IhX8l6a-36" value="Instr" style="text;html=1;align=center;verticalAlign=middle;whiteSpace=wrap;rounded=0;" vertex="1" parent="1">
          <mxGeometry x="460" y="413" width="60" height="30" as="geometry" />
        </mxCell>
        <mxCell id="kE1xLlnzsojC-IhX8l6a-40" value="" style="endArrow=none;html=1;rounded=0;entryX=0;entryY=0.25;entryDx=0;entryDy=0;" edge="1" parent="1" target="kE1xLlnzsojC-IhX8l6a-39">
          <mxGeometry width="50" height="50" relative="1" as="geometry">
            <mxPoint x="530" y="440" as="sourcePoint" />
            <mxPoint x="610" y="77.5" as="targetPoint" />
            <Array as="points">
              <mxPoint x="530" y="203" />
              <mxPoint x="530" y="80" />
            </Array>
          </mxGeometry>
        </mxCell>
        <mxCell id="kE1xLlnzsojC-IhX8l6a-49" value="" style="group;movable=1;resizable=1;rotatable=1;deletable=1;editable=1;locked=0;connectable=1;" vertex="1" connectable="0" parent="1">
          <mxGeometry x="620" y="400" width="160" height="180" as="geometry" />
        </mxCell>
        <mxCell id="kE1xLlnzsojC-IhX8l6a-47" value="" style="rounded=0;whiteSpace=wrap;html=1;align=center;movable=1;resizable=1;rotatable=1;deletable=1;editable=1;locked=0;connectable=1;" vertex="1" parent="kE1xLlnzsojC-IhX8l6a-49">
          <mxGeometry width="160" height="180" as="geometry" />
        </mxCell>
        <mxCell id="kE1xLlnzsojC-IhX8l6a-46" value="" style="triangle;whiteSpace=wrap;html=1;rotation=90;" vertex="1" parent="kE1xLlnzsojC-IhX8l6a-49">
          <mxGeometry x="24.615384615384613" y="-18" width="24.615384615384613" height="60" as="geometry" />
        </mxCell>
        <mxCell id="kE1xLlnzsojC-IhX8l6a-54" value="&lt;font style=&quot;font-size: 15px;&quot;&gt;A1&lt;/font&gt;" style="text;html=1;align=center;verticalAlign=middle;whiteSpace=wrap;rounded=0;" vertex="1" parent="kE1xLlnzsojC-IhX8l6a-49">
          <mxGeometry y="23.999999999999996" width="49.230769230769226" height="36" as="geometry" />
        </mxCell>
        <mxCell id="kE1xLlnzsojC-IhX8l6a-53" value="&lt;font style=&quot;font-size: 15px;&quot;&gt;A2&lt;/font&gt;" style="text;html=1;align=center;verticalAlign=middle;whiteSpace=wrap;rounded=0;" vertex="1" parent="kE1xLlnzsojC-IhX8l6a-49">
          <mxGeometry y="60" width="49.230769230769226" height="36" as="geometry" />
        </mxCell>
        <mxCell id="kE1xLlnzsojC-IhX8l6a-52" value="&lt;font style=&quot;font-size: 15px;&quot;&gt;A3&lt;/font&gt;" style="text;html=1;align=center;verticalAlign=middle;whiteSpace=wrap;rounded=0;" vertex="1" parent="kE1xLlnzsojC-IhX8l6a-49">
          <mxGeometry y="95.99999999999999" width="49.230769230769226" height="36" as="geometry" />
        </mxCell>
        <mxCell id="kE1xLlnzsojC-IhX8l6a-51" value="&lt;font style=&quot;font-size: 15px;&quot;&gt;WD3&lt;/font&gt;" style="text;html=1;align=center;verticalAlign=middle;whiteSpace=wrap;rounded=0;" vertex="1" parent="kE1xLlnzsojC-IhX8l6a-49">
          <mxGeometry y="132" width="49.230769230769226" height="36" as="geometry" />
        </mxCell>
        <mxCell id="kE1xLlnzsojC-IhX8l6a-57" value="&lt;font style=&quot;font-size: 15px;&quot;&gt;RD1&lt;/font&gt;" style="text;html=1;align=center;verticalAlign=middle;whiteSpace=wrap;rounded=0;" vertex="1" parent="kE1xLlnzsojC-IhX8l6a-49">
          <mxGeometry x="120" y="27" width="40" height="30" as="geometry" />
        </mxCell>
        <mxCell id="kE1xLlnzsojC-IhX8l6a-56" value="&lt;font style=&quot;font-size: 15px;&quot;&gt;RD2&lt;/font&gt;" style="text;html=1;align=center;verticalAlign=middle;whiteSpace=wrap;rounded=0;" vertex="1" parent="kE1xLlnzsojC-IhX8l6a-49">
          <mxGeometry x="120" y="63" width="40" height="30" as="geometry" />
        </mxCell>
        <mxCell id="kE1xLlnzsojC-IhX8l6a-50" value="&lt;font style=&quot;font-size: 15px;&quot;&gt;WE3&lt;/font&gt;" style="text;html=1;align=center;verticalAlign=middle;whiteSpace=wrap;rounded=0;" vertex="1" parent="kE1xLlnzsojC-IhX8l6a-49">
          <mxGeometry x="70" width="40" height="30" as="geometry" />
        </mxCell>
        <mxCell id="kE1xLlnzsojC-IhX8l6a-59" value="&lt;font style=&quot;font-size: 15px;&quot;&gt;&lt;b&gt;Register File&lt;/b&gt;&lt;/font&gt;" style="text;html=1;align=center;verticalAlign=middle;whiteSpace=wrap;rounded=0;" vertex="1" parent="kE1xLlnzsojC-IhX8l6a-49">
          <mxGeometry x="70" y="120" width="60" height="40" as="geometry" />
        </mxCell>
        <mxCell id="kE1xLlnzsojC-IhX8l6a-60" value="" style="group" vertex="1" connectable="0" parent="1">
          <mxGeometry x="560" y="30" width="160" height="240" as="geometry" />
        </mxCell>
        <mxCell id="kE1xLlnzsojC-IhX8l6a-37" value="" style="rounded=1;whiteSpace=wrap;html=1;rotation=90;" vertex="1" parent="kE1xLlnzsojC-IhX8l6a-60">
          <mxGeometry y="80" width="240" height="80" as="geometry" />
        </mxCell>
        <mxCell id="kE1xLlnzsojC-IhX8l6a-38" value="&lt;font style=&quot;font-size: 15px;&quot;&gt;&lt;b&gt;Control Unit&lt;/b&gt;&lt;/font&gt;" style="text;html=1;align=center;verticalAlign=middle;whiteSpace=wrap;rounded=0;" vertex="1" parent="kE1xLlnzsojC-IhX8l6a-60">
          <mxGeometry x="90" y="10" width="60" height="30" as="geometry" />
        </mxCell>
        <mxCell id="kE1xLlnzsojC-IhX8l6a-39" value="&lt;font style=&quot;font-size: 15px;&quot;&gt;Op&lt;/font&gt;" style="text;html=1;align=center;verticalAlign=middle;whiteSpace=wrap;rounded=0;" vertex="1" parent="kE1xLlnzsojC-IhX8l6a-60">
          <mxGeometry x="80" y="40" width="30" height="30" as="geometry" />
        </mxCell>
        <mxCell id="kE1xLlnzsojC-IhX8l6a-41" value="" style="endArrow=none;html=1;rounded=0;entryX=0;entryY=0.25;entryDx=0;entryDy=0;" edge="1" parent="kE1xLlnzsojC-IhX8l6a-60" target="kE1xLlnzsojC-IhX8l6a-42">
          <mxGeometry width="50" height="50" relative="1" as="geometry">
            <mxPoint x="-30" y="90" as="sourcePoint" />
            <mxPoint x="60" y="90" as="targetPoint" />
          </mxGeometry>
        </mxCell>
        <mxCell id="kE1xLlnzsojC-IhX8l6a-42" value="&lt;font style=&quot;font-size: 15px;&quot;&gt;funct3&lt;/font&gt;" style="text;html=1;align=center;verticalAlign=middle;whiteSpace=wrap;rounded=0;" vertex="1" parent="kE1xLlnzsojC-IhX8l6a-60">
          <mxGeometry x="80" y="80" width="50" height="30" as="geometry" />
        </mxCell>
        <mxCell id="kE1xLlnzsojC-IhX8l6a-43" value="&lt;font style=&quot;font-size: 15px;&quot;&gt;funct7[5]&lt;/font&gt;" style="text;html=1;align=center;verticalAlign=middle;whiteSpace=wrap;rounded=0;" vertex="1" parent="kE1xLlnzsojC-IhX8l6a-60">
          <mxGeometry x="80" y="140" width="60" height="30" as="geometry" />
        </mxCell>
        <mxCell id="kE1xLlnzsojC-IhX8l6a-44" value="" style="endArrow=none;html=1;rounded=0;entryX=0.628;entryY=0.967;entryDx=0;entryDy=0;entryPerimeter=0;" edge="1" parent="kE1xLlnzsojC-IhX8l6a-60" target="kE1xLlnzsojC-IhX8l6a-37">
          <mxGeometry width="50" height="50" relative="1" as="geometry">
            <mxPoint x="-30" y="150" as="sourcePoint" />
            <mxPoint x="80" y="160" as="targetPoint" />
          </mxGeometry>
        </mxCell>
        <mxCell id="kE1xLlnzsojC-IhX8l6a-64" value="6:0" style="text;html=1;align=center;verticalAlign=middle;resizable=0;points=[];autosize=1;strokeColor=none;fillColor=none;" vertex="1" parent="kE1xLlnzsojC-IhX8l6a-60">
          <mxGeometry y="30" width="40" height="30" as="geometry" />
        </mxCell>
        <mxCell id="kE1xLlnzsojC-IhX8l6a-65" value="14:12" style="text;html=1;align=center;verticalAlign=middle;resizable=0;points=[];autosize=1;strokeColor=none;fillColor=none;" vertex="1" parent="kE1xLlnzsojC-IhX8l6a-60">
          <mxGeometry x="-10" y="70" width="50" height="30" as="geometry" />
        </mxCell>
        <mxCell id="kE1xLlnzsojC-IhX8l6a-67" value="30" style="text;html=1;align=center;verticalAlign=middle;resizable=0;points=[];autosize=1;strokeColor=none;fillColor=none;" vertex="1" parent="kE1xLlnzsojC-IhX8l6a-60">
          <mxGeometry x="-5" y="130" width="40" height="30" as="geometry" />
        </mxCell>
        <mxCell id="kE1xLlnzsojC-IhX8l6a-68" value="19:15" style="text;html=1;align=center;verticalAlign=middle;resizable=0;points=[];autosize=1;strokeColor=none;fillColor=none;" vertex="1" parent="1">
          <mxGeometry x="550" y="413" width="50" height="30" as="geometry" />
        </mxCell>
        <mxCell id="kE1xLlnzsojC-IhX8l6a-69" value="" style="endArrow=none;html=1;rounded=0;" edge="1" parent="1">
          <mxGeometry width="50" height="50" relative="1" as="geometry">
            <mxPoint x="540" y="440" as="sourcePoint" />
            <mxPoint x="540" y="730" as="targetPoint" />
          </mxGeometry>
        </mxCell>
        <mxCell id="kE1xLlnzsojC-IhX8l6a-70" value="" style="endArrow=none;html=1;rounded=0;entryX=0;entryY=0.5;entryDx=0;entryDy=0;" edge="1" parent="1" target="kE1xLlnzsojC-IhX8l6a-53">
          <mxGeometry width="50" height="50" relative="1" as="geometry">
            <mxPoint x="540" y="478" as="sourcePoint" />
            <mxPoint x="640" y="470" as="targetPoint" />
          </mxGeometry>
        </mxCell>
        <mxCell id="kE1xLlnzsojC-IhX8l6a-71" value="" style="endArrow=none;html=1;rounded=0;entryX=0;entryY=0.75;entryDx=0;entryDy=0;" edge="1" parent="1" target="kE1xLlnzsojC-IhX8l6a-52">
          <mxGeometry width="50" height="50" relative="1" as="geometry">
            <mxPoint x="540" y="523" as="sourcePoint" />
            <mxPoint x="600" y="520" as="targetPoint" />
          </mxGeometry>
        </mxCell>
        <mxCell id="kE1xLlnzsojC-IhX8l6a-73" value="24:20" style="text;html=1;align=center;verticalAlign=middle;resizable=0;points=[];autosize=1;strokeColor=none;fillColor=none;" vertex="1" parent="1">
          <mxGeometry x="550" y="450" width="50" height="30" as="geometry" />
        </mxCell>
        <mxCell id="kE1xLlnzsojC-IhX8l6a-74" value="11:7" style="text;html=1;align=center;verticalAlign=middle;resizable=0;points=[];autosize=1;strokeColor=none;fillColor=none;" vertex="1" parent="1">
          <mxGeometry x="545" y="500" width="50" height="30" as="geometry" />
        </mxCell>
        <mxCell id="kE1xLlnzsojC-IhX8l6a-76" value="&lt;div&gt;&lt;br&gt;&lt;/div&gt;&lt;b&gt;&lt;font style=&quot;font-size: 15px;&quot;&gt;Extend&lt;/font&gt;&lt;/b&gt;" style="shape=manualInput;whiteSpace=wrap;html=1;" vertex="1" parent="1">
          <mxGeometry x="620" y="690" width="180" height="50" as="geometry" />
        </mxCell>
        <mxCell id="kE1xLlnzsojC-IhX8l6a-77" value="" style="endArrow=none;html=1;rounded=0;entryX=0;entryY=0.75;entryDx=0;entryDy=0;" edge="1" parent="1" target="kE1xLlnzsojC-IhX8l6a-76">
          <mxGeometry width="50" height="50" relative="1" as="geometry">
            <mxPoint x="540" y="728" as="sourcePoint" />
            <mxPoint x="640" y="670" as="targetPoint" />
          </mxGeometry>
        </mxCell>
        <mxCell id="kE1xLlnzsojC-IhX8l6a-78" value="31:7" style="text;html=1;align=center;verticalAlign=middle;resizable=0;points=[];autosize=1;strokeColor=none;fillColor=none;" vertex="1" parent="1">
          <mxGeometry x="545" y="700" width="50" height="30" as="geometry" />
        </mxCell>
        <mxCell id="kE1xLlnzsojC-IhX8l6a-79" value="" style="endArrow=none;html=1;rounded=0;exitX=1;exitY=0.5;exitDx=0;exitDy=0;" edge="1" parent="1" source="kE1xLlnzsojC-IhX8l6a-28">
          <mxGeometry width="50" height="50" relative="1" as="geometry">
            <mxPoint x="360" y="720" as="sourcePoint" />
            <mxPoint x="500" y="685" as="targetPoint" />
          </mxGeometry>
        </mxCell>
        <mxCell id="kE1xLlnzsojC-IhX8l6a-84" value="" style="endArrow=none;html=1;rounded=0;" edge="1" parent="1">
          <mxGeometry width="50" height="50" relative="1" as="geometry">
            <mxPoint x="480" y="830" as="sourcePoint" />
            <mxPoint x="480" y="680" as="targetPoint" />
          </mxGeometry>
        </mxCell>
      </root>
    </mxGraphModel>
  </diagram>
</mxfile>
